<mxfile host="app.diagrams.net" modified="2021-07-26T16:47:58.136Z" agent="5.0 (X11; Linux x86_64) AppleWebKit/537.36 (KHTML, like Gecko) Chrome/91.0.4472.164 Safari/537.36" etag="pYiLjO49W2N28VXthl9H" version="14.9.2" type="github">
  <diagram id="pmQcDvOfZnFj4G70ORjK" name="Page-1">
    <mxGraphModel dx="1422" dy="805" grid="1" gridSize="10" guides="1" tooltips="1" connect="1" arrows="1" fold="1" page="1" pageScale="1" pageWidth="850" pageHeight="1100" math="0" shadow="0">
      <root>
        <mxCell id="0" />
        <mxCell id="1" parent="0" />
        <mxCell id="8dSErVJY6MVv4yGIq6u0-1" value="" style="ellipse;shape=cloud;whiteSpace=wrap;html=1;fillColor=#dae8fc;strokeColor=none;" vertex="1" parent="1">
          <mxGeometry x="130" y="150" width="560" height="310" as="geometry" />
        </mxCell>
        <mxCell id="8dSErVJY6MVv4yGIq6u0-2" value="CloudHub VPC" style="text;html=1;strokeColor=none;fillColor=none;align=center;verticalAlign=middle;whiteSpace=wrap;rounded=0;" vertex="1" parent="1">
          <mxGeometry x="480" y="230" width="90" height="20" as="geometry" />
        </mxCell>
        <mxCell id="8dSErVJY6MVv4yGIq6u0-14" value="" style="group" vertex="1" connectable="0" parent="1">
          <mxGeometry x="330" y="270" width="120" height="60" as="geometry" />
        </mxCell>
        <mxCell id="8dSErVJY6MVv4yGIq6u0-5" value="" style="rounded=1;whiteSpace=wrap;html=1;strokeColor=none;" vertex="1" parent="8dSErVJY6MVv4yGIq6u0-14">
          <mxGeometry width="120" height="60" as="geometry" />
        </mxCell>
        <mxCell id="8dSErVJY6MVv4yGIq6u0-8" value="" style="shape=image;imageAspect=0;aspect=fixed;verticalLabelPosition=bottom;verticalAlign=top;image=data:image/png,iVBORw0KGgoAAAANSUhEUgAAAOEAAADhCAMAAAAJbSJIAAAAkFBMVEX///8AoN8And4AnN4Amt0AnN0Aod/8//8Ao+B+y+3z+/7u+f33/f7g8/vy+/7n9vzY8Pqj2fLE5/e75PbN6/iy4PU1r+SX1PAdqOKKz+53yOxDs+XL6vhiv+nT7flRuOcmq+KJyexqwuqo3POR0/BAseVlwut1w+ua0e8XquKX1vBXvehQtudJseXA4/VbuOcQNKsbAAAVdklEQVR4nNVdeYOiPA8fWhQUEW/xZjx2dtd5Z77/t3vxGJpCkpZD3ef31x4ITZvmbvr29mh4QTgZH36/f2x2q9ksSZLZbLXbfLz/Ho4ng8h7+PcfiW64HS4/Z7GQFwghnB+kf77+o/CTz/18Hfb/e4T2oq/55uQLjS4M6f+70k++j+Ow++pB2yMaL1a+cHnScoS6sn1aTsP/wFp2J4uV48oy1GVUtlwxW46CV5PAIRrv001XgTgFKePNIXo1ITiC8TIxbDrLtRTxfvrPEekNFienEm8SRM46k39pT3rjc7s58m40us7u0H81YXdEi5gn76b7XPeyQ33fb6e7Lf2Le1GR7M+kvwxfTVyKwTKmZctFPDr+6ftj8XeaWjCDMIyiKAwHg8loOlwsN6c4paNF0yn8/frV9O19anyptvdP+/l0G5EWi9ePBuPfH6uY3sKifX7lhgyXDr5+KVvGu+E66lm9xou2h01MmQhCbLYPpoNCsMR1n3SdzWFQeuLD6YePmwpCbl6xH/tzbP1EK5Xzo8psNTmuBLYtheg8W0F60xNGnzN7X9czoHuD46qN0CjjoR3LN4TwuyjoL6bIqAkN1tuixpFcPW87evN2YQGlnA2bY6RguktVfpFVn2QCjGaFj0v/V9MTHC6LdoQbTxv+CobuorBNZLJ4hKyL5rMCjWL/cIkz2eUZVMQPoe+CYD7Lb0g5Gz/oY3cM49wXXX/xyFkN5kluSwhn8UCh2jvnFlA+Xk8FRydHo7t62DcniU5gak8NHvUtgChvG4r4QZx6yHFoazV+kk2c3/zCOT7iyx1904v24nnhP++Qc2HEpvGPe9/6bnBXz2BQhWijf1+eGo7JhTONT4QzbPb9FhjrnrbwG7UxJonGJHL1Cm8mOuvbxG9Q3ow0GSOczmsC8N5c242ifWjqzSNHe/FTjEMcOX0lGyJxqgnRB+pbC/R1gSOPTbx0qMkwZ/niQO1RM/zFov4bh21tdz9fhuYx1g2P2iRONfH1KHOpFCYzSGJdRh3pMua5Wp5CpLngshZbjbRt/VIZA9HbyIZInECWl9//Tu6yu4QktiurrwhaMnLz7xCYrmIHMKrwJ9Xe4sEd3fp+arjSDLiKwq82+5DZ5XfDA6wPjcRZlflfAD5wN9wbJqvHpMCCFWuVdeAKbMobIge4B3cMFwSL9P8fYoovpOTCJB5cRVla80+AGS9WDIGTVfodMS/7fgus/Uu6gllGXWmUFKg9IGVEzOjB483v8Jt3GL2duPEfvUHgKB2/nLb+JQGBtDMdnd2fZS71ehsc76OXf+hdHsCFWJWRNkM4N7QtOlIfcBvzRu8YAF3wl3xqC1S227F/+zYGgpi2iWB4UcTN8qm+x5bk8oyh62PtF3R3YGJof/Cox26adRyn+svPZF7tr1JqYma7FRdgE5LM3Vvmc2xNelaRHvpyXDr2tVejlb/s3r4GLEryXnDOEyhmDRqu+0KGK6HkXRdKGytpoJmjlJIJdsLJQ5TY6QaMCy9PJ5sSqRNfPWVloA7V4khqzP0VWhVS0cQvoJcgrxdtahWB5G8tzW+P1IyIE7G/u6cWQmBzSnFB1JERJpwH5K4wmsjwaeqNwQolMJUHzRhv20KdwA+I4QdKu4mTyUQeA0VBaMKgkOjO0G4ikNNFt8B1+JR5NQY7yzDL3VP2dnHCH/E2dC1hFSemgDlT65gQsh2MyWB6wLcTcqOgB7Uh1DfeBj73/hUuGiLFp/KDe3tf2UAu4XD95QgsbeEjQPQQgHvGTZADEDbcVlFuMyVHp+h3FeS5JoFDQ62/xPUBkJCCibiE6kUCt8HW+WqT4iTXM94ijkdvwEXJFrAfrTFUiE7gIiM4mQhMhUEt461grhXhj9BfLsAiUvIuVNMgcLH8y6IgnzSEbDC2+ID4g26gAJgq+BzA+BzB7ENeyvygOp/mXQoc7hldIzU6scMXcaAkLh522bbRD+ZBSXQLLO0ObeCZii6Yni/09UCQoozWpW2ZHIlVc3ojs5i5AbdtlAUuUIkeKTGJmwVH+zNb1Yw3LXTGQqJsCAwy1A+ZZ/+NR1ctefQCsapkvC3stvl1iKjKUFFssS/+r/fHsISkPYwNoEpKb2v//nSRsDFCt7Wos5R5jot7k62ho0K2uMebazmIDTrIzK1zixFIZZ2jLlBgKwRukPvSfDosQ2BKAqbzgj/ZDBRCaGFGAW7OdEotoVM6jfAWxuZ3QogTZoIDwyY/A0pQolbdoOzpQhGXNN42ZacQDShE2X/LnKxRe1TMGvk+Ks0YTMtOoeMkmKN2puTlKFMFaKJsZK8pMsgyadN+SR69fgBTaioOmUtHqG2GGmzn8jNMbBQCHXtVqIBl/VR8WGjWq8pSoVJ4TX2DhWtfrTSqQiBuHS4Um0Kd8KV+hdmsVZbwAtsq3q61uabDRyKHKsyj7Tdl02P+a2lB+vOJT0ulSEWATcDinV5mOIid+tde8vMb1DEsYS/qMMUu75hUkGM3GrDMmHITQVRsq4xuxFIIKsi5H1hF3syhEQrYcFWkQiqrQ6n7BHFeD1WXUGcUEkwE2Ejhr+I+UPatUOnEz59/w1I35Szi/BDMxltYlUcvwNwgxaZ/fiSRsqqxUOC2nM2dA2p4aBNY3lwCwOyTUMVrfoS50kYC2blVBd0NRExLoYK5BincISPO5GYmazMaxGfxcToTdINxhfnIW2iKrhl4GDs501Hmy22bqo3WQtacF+XitDZIWkN6f28gUEyXLA9hdo1y5u+CU2kDF0k3LdghyLFRFLLpfWMaZPMW8VOM5J2VC3W3qtYZDZgVxDLpRRuYZS1tvPVNPHrxA+bsM1jAJjMC7/GiTLoa5gN7/WXwA4O+ZArOTNbSVVR02WnATgYtc9pv/xO+wY4uTDkevAtKUyCVTO+vTZvwZjCw4hbztL+U6LxMbu9/mehBbCA2zu7f/BNjJNfHI299I3/fftf95J77U+QQ5V9cXUiVIEacXy/BX3tFpuu+mIcuIHJ1JhmVOfH8Iha3eTcb9XUbqUAsUg4+QF/6g0z08hKdSO+zCXsHFo4EM+YxzIXKmONqNWY7DXPvp4woAGECU1YMPS5g5FG1abjiASw0m9kwVzbIQjRYbQK3ONCIHZsYrigPDib5BPQol/vGaoTUql2SUFmwG5G7PW6Pw1SsZ8pOFzw5U8Jet4WYGh5MfEwU+W/Q/yyG/yLGJNNt6nIDfjNvXanZs5ysQdxgNZo4gHKnOBdchCanW/4adlUuumli61yOk4szILESIJpCYLQgQShur8S65PWMggOySMBpoevbc34lE+5D9riyJOX2baD0f3HHMr6hyFccb01OBowQm3i00NHgQFOI+YgfmTAdv62zPyPmz54os3QwFXc02WCKT0f8kymP5gfNKU+kgF2pi6ESrEiMhhOlRUssMGWJRbbRjS5FwU7Bq5LvTxcFSJbPlb/Bn4t2N7NbMMd2YpIeP/UFR5NLgZjqHF8X3VqlEN/ffmcKv2j9MCoA42ljGvX+CVPNA1rowGTZRTGgl4WeUtfjPVvD4nMDeigCS7v0jRLywk89UxoErYhnskNIXUTms6YO2MfP55DEOPNWvHbRGJS4rLwpYS/Q8BxjfCAKMcy+sVL2EJLd5urocJdvY4qPT99CQwGnwOLubFmkfC/OR8Z9s7fvjMKin8XYSsSZRM7Mu/2ub+RRvLDQ+6YpLC66kiCJ8mGQ4mFazZIxQs7duv5wZRAzZAiZjjsigQxl5cUqZ4FQSMuvWwAEm2pTkN5k25E1HLR9hTi2ikL/bZU9yOjN4kvJMtyoVpTecclUzpy0r5BKRLiG0AovQSFdS1IjWcam45jB8BRWXEP6UIPZyWAIZI6D0H4OMi0N7EMmpbSuno5jjuRyFHL7MGZlaTUKq+fjBNe5oD6FiD5ktAVHYVCxeIQ8iGSg0KAPOZuG1vh81dq62iIiNaEANEO1itktaNMou7RYK0Q7qrS2uMLowqPv5MvEaBmNFLhBu/RdCw/roN0cUuPfEBgPD2GgzoHc0CH1IWJ5Q9+C8w+ZMgnDwW0mrELBVK75QW8Zzj/csD5+RPt7XDeQC0pXWJjOS/VoyxtZfOjjZ39GCti5KgVDqbrJRyrCUHnDCWg+TsPG2uhgOsIZxDfsYCx9D2k7AuEnGGtT8VJE3dKBF+PJn5KlVMbGISN6slfFgcN4qdIcyEagD6vh5x0gTOl9DebmL3S9giwORW1auQUV1kjeglHdxnKuMsabRa8CesO0iuyk5S3Y3BPD/OYucF37qkoi0a+NmXwZ4lJquSeV80BUPlOebNH8yrrC36J/5Zp5V3F69PxhJk0Q44fpLmBTOmppvNl0eGJKsxD5oeeA2Tw+k0BHT4/pMEaI7x+2qHinNTNmIi80Ja9KoJFajDVNoc0JPKtTBjanFpiTe9jP9VoMtp6mT4saq14tH2Y+FYnFyROm7ApJcqu89rWmDtREIed4OL1tccbQ4lCftDj6zVVdIYUsuZoodcgfOzxAx/Awx7MIU02JhenwpnVnKfwekXiqru0mw4Yu8/CWWUOTf3GFwckQZsuBtwAlEhjI1yYqiy8u7giu9NGqDfOAz2QYLfjrCLk3III44+m7z6sMAIk8zZQpW80/HyEWbGPUO7hyfqw3K6iJvRleoDQDUQBIYzH1epvWAj0uvW8210xDQISB2rU/SRBVq490dmFDg1YD3LqSAtWKSkOPs2/biPzPQk9Z1SfQywjPcMl5q1M/b8MOhYXN4TauigXzDcF5ix8pFLFnZthtbqPMaoLxb/BygjBTcEquZDsFU3FcJYuNm1gTfEIS2ybIuSd4dg1Z9L9sMXu5I9vlwfbEwcqrwdk1ZUwotY4ZbnxhZUN99ijw5fzW5w/BGVLMEjMctMa73TSDiA1K4mdI1bF0sIMyMwetQBjwhpeVyqgGjz2HUOIcMNSp2IrwgcGa3b04MLWR17m1P8ttOI9vKJaUXEfzOmAbGBJNFZT21HlLqXU0NGuI7srdI3SGZwrzYIUpVE8FsEpoDG1sqiZ8AIk9U+MvdAkBIfomNfQ24Tp63n/VdNv5nrH7HeqeqoHmmVEVtWLHLI3FsY7401QT4RsiY+s0Y3+anDEARBAaVjBs+ks1F5uFL4nRH+OUzrC6DabHEOBDVL/xJy1v2DclUr0jeSd9BrTHpirbRjxjdcQD7/VlUcwlZ83cVRKadr1D+W3KnkGial7WJgtXGJ5F08Zmbu48xBbJALTRLHSDEDGkVCXec49OUQLI2lcHTlZWcXJ0iKDnHtZhH5T34glZu4Zmsta1OuG+cFE1BjyXA8sOUMlu6n1pWcwlnE1VGqOOb5etwqIz2hLi0RVw8Abv6GzFpyncql6xMUB+RwsN1MLQPxFc+TCIU9uOXFZRXgyG6HH2fjzfqOaHbN8EDpBI3Oez639Z+UIW2+JblMNAEoiOj32o/pf4+fKBTR2QdQOsIuyEGV63ofozUG2E32BFH9XPe2qRmq/RDJqLbmcjw18PpAjaFvMO5ZGhodY3qxISYnJsYNEAU57xgW2ycAAbpg5AY3M8sWQ8tG2ZdMNhLqSi7gMCxb58WQC0PnFh0zO5NcXznyVgaiIiiOvPwEloQwS3D+63IPL0kUHx17rc1dTtxCeMCZADNElysNpUYmjA2+Dmm14YdPmNSN04CnJLxj5/WpqAmI0t673FddwL5oSaQ9f3ge6nYmZsCA9vgCDk6VvIkGhVeUCDS1NQZ6K8PVhCvlj8ijl4nMrxhm2SRKukJw36niD60Bc4lGqVKNLu7KJU25Y0bpCDKaVAb0SqBBW2OrC7BAZEuOnrKweURPWrEZaBOGIqfGoFYZ0Ad24KAliHdIf8aIWqLvxWghLAPShJ3roGbzWxlgGwQxVtZPZ+YWOxaHbJA+3bxAScgWgib4MqAt5GV+jBkcFbYPKmbqoNi3iJM7m9vuBQS8wuPEoQ0/L3UJQ3Se1LuxDDt0OqWGh9MNdtIjgD5mbuOdjOcsMxNvM0I78RJSlj9PAhHgSnfwrmhmuR7y2Ftoy1t2HhsFWLSWt5UNqVvZIYNu1k73QeJ3DOG7j5WGsZI/w5c+GxxtCl5xZ2r5AbxtiL9moZawQwFICykp9MRsvTrh6vcHsPDKzxt/6NszB8rdusfvCV1bs6R87VhOGG1ncVp3TXgiRyT/YX4vY15BxqedyD78LdsCwPV9DCo8Cg3XdquLsx3LuXh2sEMBS87yt9J8ORUrgH2xW/q50hlHteGH99CmE4HWyLo+vIZMi+ytMiYniQ3wbaXYByYzjkOV2VuO+Bw8hN5vyi9PTAag0VpcUvW6ayGW9a03O6ozs37Co94FfpcqkMWpehpu9Pr4pAc2vqlg4eHI1EixjBwzHQqqIrX2OX4a9OYv27YutirDkfTVwGPtdIdDqNiMvqGPo6gU0MR+8e4O4eVologe5ei1RVsdUwTLXmTjJ+fPU6he1J0xLN1SePNU9XtBc1MhN1kOPQdr3ApYbcNcBi9wq1EeQKiRjPuALCRKvWFf7zZepILyQS1U01HL2dHox2d4+r7sYQ6SLGaT3goEeuoFW0Ge+7aXjTXCWY/G6gvKyAYS546H4+y8LZ5s7NCMfqwFR5rJP8hz6eIXGCRTv33WZlDEQ/n+GWzuLR5566w3wlmGy84hrAm+czh65/fCSN/WGSS7elduNj9/+6kJARycNoDIYnkZtROXu4RRUsCw06ZXJ8BN9ERfocsXn0rrhgnBSWseUvm1aPYSculJq6zzI0esdin1UpVofmnI7++CwK6W4hl89zawa7Av84QsTLdRN6uLddzJBWtdIQXmwYvUM+63Qlsn1abOsR2Qvnn+3i9KU+2/wRVgyHYIG1BE5567RYVzY4Bil5LvZasXyFNxPtBZbnFlL6+0N5wRNOP2KJ1rGLZ5v5CoO9g1faCVcm34eJrWQPttN9IrDFu87Yd7NHqsphu2njNF5UiBOvlsOvQdQlubYbhaND5zNORTFRvCKc3ejFsa/tnjlBIFop28WrTec4nI4GYRjdEIaD9fhw7Gw+47aQxNpdf9/evJq+C8KOzx8DEeLaAyOlxPfjFO2Ui1NIfNepn0ln30yaoD56053DrEQlpCbE8JVxyzy8bWdGbaUKuFgPoxcF9GgE033cCJEpeZvDMwzsCoimmxjVkSXIc/3z8N9IcRHoj5Yzx21VWstU8Cb78T+6ehBeOF2efGF1zC5bOinbs9QS+uf2HoluOF3sZr4kNbmi7UJcsuscBrRh8K/CCwaj+f4zSZczJVRotKZ/k5d/9pPV5jgaBP854iB60WAyHf5+3593p1lywWy22m0+3ofTdWrRPfz7/wetQjS5hnUE3QAAAABJRU5ErkJggg==;" vertex="1" parent="8dSErVJY6MVv4yGIq6u0-14">
          <mxGeometry x="15" y="10" width="40" height="40" as="geometry" />
        </mxCell>
        <mxCell id="8dSErVJY6MVv4yGIq6u0-11" value="APIs" style="text;html=1;strokeColor=none;fillColor=none;align=center;verticalAlign=middle;whiteSpace=wrap;rounded=0;" vertex="1" parent="8dSErVJY6MVv4yGIq6u0-14">
          <mxGeometry x="55" y="20" width="40" height="20" as="geometry" />
        </mxCell>
        <mxCell id="8dSErVJY6MVv4yGIq6u0-16" value="" style="group" vertex="1" connectable="0" parent="1">
          <mxGeometry x="360" y="299" width="140" height="90" as="geometry" />
        </mxCell>
        <mxCell id="8dSErVJY6MVv4yGIq6u0-17" value="" style="rounded=1;whiteSpace=wrap;html=1;strokeColor=none;" vertex="1" parent="8dSErVJY6MVv4yGIq6u0-16">
          <mxGeometry width="120" height="60" as="geometry" />
        </mxCell>
        <mxCell id="8dSErVJY6MVv4yGIq6u0-18" value="" style="shape=image;imageAspect=0;aspect=fixed;verticalLabelPosition=bottom;verticalAlign=top;image=data:image/png,iVBORw0KGgoAAAANSUhEUgAAAOEAAADhCAMAAAAJbSJIAAAAkFBMVEX///8AoN8And4AnN4Amt0AnN0Aod/8//8Ao+B+y+3z+/7u+f33/f7g8/vy+/7n9vzY8Pqj2fLE5/e75PbN6/iy4PU1r+SX1PAdqOKKz+53yOxDs+XL6vhiv+nT7flRuOcmq+KJyexqwuqo3POR0/BAseVlwut1w+ua0e8XquKX1vBXvehQtudJseXA4/VbuOcQNKsbAAAVdklEQVR4nNVdeYOiPA8fWhQUEW/xZjx2dtd5Z77/t3vxGJpCkpZD3ef31x4ITZvmbvr29mh4QTgZH36/f2x2q9ksSZLZbLXbfLz/Ho4ng8h7+PcfiW64HS4/Z7GQFwghnB+kf77+o/CTz/18Hfb/e4T2oq/55uQLjS4M6f+70k++j+Ow++pB2yMaL1a+cHnScoS6sn1aTsP/wFp2J4uV48oy1GVUtlwxW46CV5PAIRrv001XgTgFKePNIXo1ITiC8TIxbDrLtRTxfvrPEekNFienEm8SRM46k39pT3rjc7s58m40us7u0H81YXdEi5gn76b7XPeyQ33fb6e7Lf2Le1GR7M+kvwxfTVyKwTKmZctFPDr+6ftj8XeaWjCDMIyiKAwHg8loOlwsN6c4paNF0yn8/frV9O19anyptvdP+/l0G5EWi9ePBuPfH6uY3sKifX7lhgyXDr5+KVvGu+E66lm9xou2h01MmQhCbLYPpoNCsMR1n3SdzWFQeuLD6YePmwpCbl6xH/tzbP1EK5Xzo8psNTmuBLYtheg8W0F60xNGnzN7X9czoHuD46qN0CjjoR3LN4TwuyjoL6bIqAkN1tuixpFcPW87evN2YQGlnA2bY6RguktVfpFVn2QCjGaFj0v/V9MTHC6LdoQbTxv+CobuorBNZLJ4hKyL5rMCjWL/cIkz2eUZVMQPoe+CYD7Lb0g5Gz/oY3cM49wXXX/xyFkN5kluSwhn8UCh2jvnFlA+Xk8FRydHo7t62DcniU5gak8NHvUtgChvG4r4QZx6yHFoazV+kk2c3/zCOT7iyx1904v24nnhP++Qc2HEpvGPe9/6bnBXz2BQhWijf1+eGo7JhTONT4QzbPb9FhjrnrbwG7UxJonGJHL1Cm8mOuvbxG9Q3ow0GSOczmsC8N5c242ifWjqzSNHe/FTjEMcOX0lGyJxqgnRB+pbC/R1gSOPTbx0qMkwZ/niQO1RM/zFov4bh21tdz9fhuYx1g2P2iRONfH1KHOpFCYzSGJdRh3pMua5Wp5CpLngshZbjbRt/VIZA9HbyIZInECWl9//Tu6yu4QktiurrwhaMnLz7xCYrmIHMKrwJ9Xe4sEd3fp+arjSDLiKwq82+5DZ5XfDA6wPjcRZlflfAD5wN9wbJqvHpMCCFWuVdeAKbMobIge4B3cMFwSL9P8fYoovpOTCJB5cRVla80+AGS9WDIGTVfodMS/7fgus/Uu6gllGXWmUFKg9IGVEzOjB483v8Jt3GL2duPEfvUHgKB2/nLb+JQGBtDMdnd2fZS71ehsc76OXf+hdHsCFWJWRNkM4N7QtOlIfcBvzRu8YAF3wl3xqC1S227F/+zYGgpi2iWB4UcTN8qm+x5bk8oyh62PtF3R3YGJof/Cox26adRyn+svPZF7tr1JqYma7FRdgE5LM3Vvmc2xNelaRHvpyXDr2tVejlb/s3r4GLEryXnDOEyhmDRqu+0KGK6HkXRdKGytpoJmjlJIJdsLJQ5TY6QaMCy9PJ5sSqRNfPWVloA7V4khqzP0VWhVS0cQvoJcgrxdtahWB5G8tzW+P1IyIE7G/u6cWQmBzSnFB1JERJpwH5K4wmsjwaeqNwQolMJUHzRhv20KdwA+I4QdKu4mTyUQeA0VBaMKgkOjO0G4ikNNFt8B1+JR5NQY7yzDL3VP2dnHCH/E2dC1hFSemgDlT65gQsh2MyWB6wLcTcqOgB7Uh1DfeBj73/hUuGiLFp/KDe3tf2UAu4XD95QgsbeEjQPQQgHvGTZADEDbcVlFuMyVHp+h3FeS5JoFDQ62/xPUBkJCCibiE6kUCt8HW+WqT4iTXM94ijkdvwEXJFrAfrTFUiE7gIiM4mQhMhUEt461grhXhj9BfLsAiUvIuVNMgcLH8y6IgnzSEbDC2+ID4g26gAJgq+BzA+BzB7ENeyvygOp/mXQoc7hldIzU6scMXcaAkLh522bbRD+ZBSXQLLO0ObeCZii6Yni/09UCQoozWpW2ZHIlVc3ojs5i5AbdtlAUuUIkeKTGJmwVH+zNb1Yw3LXTGQqJsCAwy1A+ZZ/+NR1ctefQCsapkvC3stvl1iKjKUFFssS/+r/fHsISkPYwNoEpKb2v//nSRsDFCt7Wos5R5jot7k62ho0K2uMebazmIDTrIzK1zixFIZZ2jLlBgKwRukPvSfDosQ2BKAqbzgj/ZDBRCaGFGAW7OdEotoVM6jfAWxuZ3QogTZoIDwyY/A0pQolbdoOzpQhGXNN42ZacQDShE2X/LnKxRe1TMGvk+Ks0YTMtOoeMkmKN2puTlKFMFaKJsZK8pMsgyadN+SR69fgBTaioOmUtHqG2GGmzn8jNMbBQCHXtVqIBl/VR8WGjWq8pSoVJ4TX2DhWtfrTSqQiBuHS4Um0Kd8KV+hdmsVZbwAtsq3q61uabDRyKHKsyj7Tdl02P+a2lB+vOJT0ulSEWATcDinV5mOIid+tde8vMb1DEsYS/qMMUu75hUkGM3GrDMmHITQVRsq4xuxFIIKsi5H1hF3syhEQrYcFWkQiqrQ6n7BHFeD1WXUGcUEkwE2Ejhr+I+UPatUOnEz59/w1I35Szi/BDMxltYlUcvwNwgxaZ/fiSRsqqxUOC2nM2dA2p4aBNY3lwCwOyTUMVrfoS50kYC2blVBd0NRExLoYK5BincISPO5GYmazMaxGfxcToTdINxhfnIW2iKrhl4GDs501Hmy22bqo3WQtacF+XitDZIWkN6f28gUEyXLA9hdo1y5u+CU2kDF0k3LdghyLFRFLLpfWMaZPMW8VOM5J2VC3W3qtYZDZgVxDLpRRuYZS1tvPVNPHrxA+bsM1jAJjMC7/GiTLoa5gN7/WXwA4O+ZArOTNbSVVR02WnATgYtc9pv/xO+wY4uTDkevAtKUyCVTO+vTZvwZjCw4hbztL+U6LxMbu9/mehBbCA2zu7f/BNjJNfHI299I3/fftf95J77U+QQ5V9cXUiVIEacXy/BX3tFpuu+mIcuIHJ1JhmVOfH8Iha3eTcb9XUbqUAsUg4+QF/6g0z08hKdSO+zCXsHFo4EM+YxzIXKmONqNWY7DXPvp4woAGECU1YMPS5g5FG1abjiASw0m9kwVzbIQjRYbQK3ONCIHZsYrigPDib5BPQol/vGaoTUql2SUFmwG5G7PW6Pw1SsZ8pOFzw5U8Jet4WYGh5MfEwU+W/Q/yyG/yLGJNNt6nIDfjNvXanZs5ysQdxgNZo4gHKnOBdchCanW/4adlUuumli61yOk4szILESIJpCYLQgQShur8S65PWMggOySMBpoevbc34lE+5D9riyJOX2baD0f3HHMr6hyFccb01OBowQm3i00NHgQFOI+YgfmTAdv62zPyPmz54os3QwFXc02WCKT0f8kymP5gfNKU+kgF2pi6ESrEiMhhOlRUssMGWJRbbRjS5FwU7Bq5LvTxcFSJbPlb/Bn4t2N7NbMMd2YpIeP/UFR5NLgZjqHF8X3VqlEN/ffmcKv2j9MCoA42ljGvX+CVPNA1rowGTZRTGgl4WeUtfjPVvD4nMDeigCS7v0jRLywk89UxoErYhnskNIXUTms6YO2MfP55DEOPNWvHbRGJS4rLwpYS/Q8BxjfCAKMcy+sVL2EJLd5urocJdvY4qPT99CQwGnwOLubFmkfC/OR8Z9s7fvjMKin8XYSsSZRM7Mu/2ub+RRvLDQ+6YpLC66kiCJ8mGQ4mFazZIxQs7duv5wZRAzZAiZjjsigQxl5cUqZ4FQSMuvWwAEm2pTkN5k25E1HLR9hTi2ikL/bZU9yOjN4kvJMtyoVpTecclUzpy0r5BKRLiG0AovQSFdS1IjWcam45jB8BRWXEP6UIPZyWAIZI6D0H4OMi0N7EMmpbSuno5jjuRyFHL7MGZlaTUKq+fjBNe5oD6FiD5ktAVHYVCxeIQ8iGSg0KAPOZuG1vh81dq62iIiNaEANEO1itktaNMou7RYK0Q7qrS2uMLowqPv5MvEaBmNFLhBu/RdCw/roN0cUuPfEBgPD2GgzoHc0CH1IWJ5Q9+C8w+ZMgnDwW0mrELBVK75QW8Zzj/csD5+RPt7XDeQC0pXWJjOS/VoyxtZfOjjZ39GCti5KgVDqbrJRyrCUHnDCWg+TsPG2uhgOsIZxDfsYCx9D2k7AuEnGGtT8VJE3dKBF+PJn5KlVMbGISN6slfFgcN4qdIcyEagD6vh5x0gTOl9DebmL3S9giwORW1auQUV1kjeglHdxnKuMsabRa8CesO0iuyk5S3Y3BPD/OYucF37qkoi0a+NmXwZ4lJquSeV80BUPlOebNH8yrrC36J/5Zp5V3F69PxhJk0Q44fpLmBTOmppvNl0eGJKsxD5oeeA2Tw+k0BHT4/pMEaI7x+2qHinNTNmIi80Ja9KoJFajDVNoc0JPKtTBjanFpiTe9jP9VoMtp6mT4saq14tH2Y+FYnFyROm7ApJcqu89rWmDtREIed4OL1tccbQ4lCftDj6zVVdIYUsuZoodcgfOzxAx/Awx7MIU02JhenwpnVnKfwekXiqru0mw4Yu8/CWWUOTf3GFwckQZsuBtwAlEhjI1yYqiy8u7giu9NGqDfOAz2QYLfjrCLk3III44+m7z6sMAIk8zZQpW80/HyEWbGPUO7hyfqw3K6iJvRleoDQDUQBIYzH1epvWAj0uvW8210xDQISB2rU/SRBVq490dmFDg1YD3LqSAtWKSkOPs2/biPzPQk9Z1SfQywjPcMl5q1M/b8MOhYXN4TauigXzDcF5ix8pFLFnZthtbqPMaoLxb/BygjBTcEquZDsFU3FcJYuNm1gTfEIS2ybIuSd4dg1Z9L9sMXu5I9vlwfbEwcqrwdk1ZUwotY4ZbnxhZUN99ijw5fzW5w/BGVLMEjMctMa73TSDiA1K4mdI1bF0sIMyMwetQBjwhpeVyqgGjz2HUOIcMNSp2IrwgcGa3b04MLWR17m1P8ttOI9vKJaUXEfzOmAbGBJNFZT21HlLqXU0NGuI7srdI3SGZwrzYIUpVE8FsEpoDG1sqiZ8AIk9U+MvdAkBIfomNfQ24Tp63n/VdNv5nrH7HeqeqoHmmVEVtWLHLI3FsY7401QT4RsiY+s0Y3+anDEARBAaVjBs+ks1F5uFL4nRH+OUzrC6DabHEOBDVL/xJy1v2DclUr0jeSd9BrTHpirbRjxjdcQD7/VlUcwlZ83cVRKadr1D+W3KnkGial7WJgtXGJ5F08Zmbu48xBbJALTRLHSDEDGkVCXec49OUQLI2lcHTlZWcXJ0iKDnHtZhH5T34glZu4Zmsta1OuG+cFE1BjyXA8sOUMlu6n1pWcwlnE1VGqOOb5etwqIz2hLi0RVw8Abv6GzFpyncql6xMUB+RwsN1MLQPxFc+TCIU9uOXFZRXgyG6HH2fjzfqOaHbN8EDpBI3Oez639Z+UIW2+JblMNAEoiOj32o/pf4+fKBTR2QdQOsIuyEGV63ofozUG2E32BFH9XPe2qRmq/RDJqLbmcjw18PpAjaFvMO5ZGhodY3qxISYnJsYNEAU57xgW2ycAAbpg5AY3M8sWQ8tG2ZdMNhLqSi7gMCxb58WQC0PnFh0zO5NcXznyVgaiIiiOvPwEloQwS3D+63IPL0kUHx17rc1dTtxCeMCZADNElysNpUYmjA2+Dmm14YdPmNSN04CnJLxj5/WpqAmI0t673FddwL5oSaQ9f3ge6nYmZsCA9vgCDk6VvIkGhVeUCDS1NQZ6K8PVhCvlj8ijl4nMrxhm2SRKukJw36niD60Bc4lGqVKNLu7KJU25Y0bpCDKaVAb0SqBBW2OrC7BAZEuOnrKweURPWrEZaBOGIqfGoFYZ0Ad24KAliHdIf8aIWqLvxWghLAPShJ3roGbzWxlgGwQxVtZPZ+YWOxaHbJA+3bxAScgWgib4MqAt5GV+jBkcFbYPKmbqoNi3iJM7m9vuBQS8wuPEoQ0/L3UJQ3Se1LuxDDt0OqWGh9MNdtIjgD5mbuOdjOcsMxNvM0I78RJSlj9PAhHgSnfwrmhmuR7y2Ftoy1t2HhsFWLSWt5UNqVvZIYNu1k73QeJ3DOG7j5WGsZI/w5c+GxxtCl5xZ2r5AbxtiL9moZawQwFICykp9MRsvTrh6vcHsPDKzxt/6NszB8rdusfvCV1bs6R87VhOGG1ncVp3TXgiRyT/YX4vY15BxqedyD78LdsCwPV9DCo8Cg3XdquLsx3LuXh2sEMBS87yt9J8ORUrgH2xW/q50hlHteGH99CmE4HWyLo+vIZMi+ytMiYniQ3wbaXYByYzjkOV2VuO+Bw8hN5vyi9PTAag0VpcUvW6ayGW9a03O6ozs37Co94FfpcqkMWpehpu9Pr4pAc2vqlg4eHI1EixjBwzHQqqIrX2OX4a9OYv27YutirDkfTVwGPtdIdDqNiMvqGPo6gU0MR+8e4O4eVologe5ei1RVsdUwTLXmTjJ+fPU6he1J0xLN1SePNU9XtBc1MhN1kOPQdr3ApYbcNcBi9wq1EeQKiRjPuALCRKvWFf7zZepILyQS1U01HL2dHox2d4+r7sYQ6SLGaT3goEeuoFW0Ge+7aXjTXCWY/G6gvKyAYS546H4+y8LZ5s7NCMfqwFR5rJP8hz6eIXGCRTv33WZlDEQ/n+GWzuLR5566w3wlmGy84hrAm+czh65/fCSN/WGSS7elduNj9/+6kJARycNoDIYnkZtROXu4RRUsCw06ZXJ8BN9ERfocsXn0rrhgnBSWseUvm1aPYSculJq6zzI0esdin1UpVofmnI7++CwK6W4hl89zawa7Av84QsTLdRN6uLddzJBWtdIQXmwYvUM+63Qlsn1abOsR2Qvnn+3i9KU+2/wRVgyHYIG1BE5567RYVzY4Bil5LvZasXyFNxPtBZbnFlL6+0N5wRNOP2KJ1rGLZ5v5CoO9g1faCVcm34eJrWQPttN9IrDFu87Yd7NHqsphu2njNF5UiBOvlsOvQdQlubYbhaND5zNORTFRvCKc3ejFsa/tnjlBIFop28WrTec4nI4GYRjdEIaD9fhw7Gw+47aQxNpdf9/evJq+C8KOzx8DEeLaAyOlxPfjFO2Ui1NIfNepn0ln30yaoD56053DrEQlpCbE8JVxyzy8bWdGbaUKuFgPoxcF9GgE033cCJEpeZvDMwzsCoimmxjVkSXIc/3z8N9IcRHoj5Yzx21VWstU8Cb78T+6ehBeOF2efGF1zC5bOinbs9QS+uf2HoluOF3sZr4kNbmi7UJcsuscBrRh8K/CCwaj+f4zSZczJVRotKZ/k5d/9pPV5jgaBP854iB60WAyHf5+3593p1lywWy22m0+3ofTdWrRPfz7/wetQjS5hnUE3QAAAABJRU5ErkJggg==;" vertex="1" parent="8dSErVJY6MVv4yGIq6u0-16">
          <mxGeometry x="15" y="10" width="40" height="40" as="geometry" />
        </mxCell>
        <mxCell id="8dSErVJY6MVv4yGIq6u0-19" value="APIs" style="text;html=1;strokeColor=none;fillColor=none;align=center;verticalAlign=middle;whiteSpace=wrap;rounded=0;" vertex="1" parent="8dSErVJY6MVv4yGIq6u0-16">
          <mxGeometry x="55" y="20" width="40" height="20" as="geometry" />
        </mxCell>
        <mxCell id="8dSErVJY6MVv4yGIq6u0-26" value="" style="group" vertex="1" connectable="0" parent="8dSErVJY6MVv4yGIq6u0-16">
          <mxGeometry x="20" y="30" width="120" height="60" as="geometry" />
        </mxCell>
        <mxCell id="8dSErVJY6MVv4yGIq6u0-27" value="" style="rounded=1;whiteSpace=wrap;html=1;strokeColor=none;" vertex="1" parent="8dSErVJY6MVv4yGIq6u0-26">
          <mxGeometry width="120" height="60" as="geometry" />
        </mxCell>
        <mxCell id="8dSErVJY6MVv4yGIq6u0-28" value="" style="shape=image;imageAspect=0;aspect=fixed;verticalLabelPosition=bottom;verticalAlign=top;image=data:image/png,iVBORw0KGgoAAAANSUhEUgAAAOEAAADhCAMAAAAJbSJIAAAAkFBMVEX///8AoN8And4AnN4Amt0AnN0Aod/8//8Ao+B+y+3z+/7u+f33/f7g8/vy+/7n9vzY8Pqj2fLE5/e75PbN6/iy4PU1r+SX1PAdqOKKz+53yOxDs+XL6vhiv+nT7flRuOcmq+KJyexqwuqo3POR0/BAseVlwut1w+ua0e8XquKX1vBXvehQtudJseXA4/VbuOcQNKsbAAAVdklEQVR4nNVdeYOiPA8fWhQUEW/xZjx2dtd5Z77/t3vxGJpCkpZD3ef31x4ITZvmbvr29mh4QTgZH36/f2x2q9ksSZLZbLXbfLz/Ho4ng8h7+PcfiW64HS4/Z7GQFwghnB+kf77+o/CTz/18Hfb/e4T2oq/55uQLjS4M6f+70k++j+Ow++pB2yMaL1a+cHnScoS6sn1aTsP/wFp2J4uV48oy1GVUtlwxW46CV5PAIRrv001XgTgFKePNIXo1ITiC8TIxbDrLtRTxfvrPEekNFienEm8SRM46k39pT3rjc7s58m40us7u0H81YXdEi5gn76b7XPeyQ33fb6e7Lf2Le1GR7M+kvwxfTVyKwTKmZctFPDr+6ftj8XeaWjCDMIyiKAwHg8loOlwsN6c4paNF0yn8/frV9O19anyptvdP+/l0G5EWi9ePBuPfH6uY3sKifX7lhgyXDr5+KVvGu+E66lm9xou2h01MmQhCbLYPpoNCsMR1n3SdzWFQeuLD6YePmwpCbl6xH/tzbP1EK5Xzo8psNTmuBLYtheg8W0F60xNGnzN7X9czoHuD46qN0CjjoR3LN4TwuyjoL6bIqAkN1tuixpFcPW87evN2YQGlnA2bY6RguktVfpFVn2QCjGaFj0v/V9MTHC6LdoQbTxv+CobuorBNZLJ4hKyL5rMCjWL/cIkz2eUZVMQPoe+CYD7Lb0g5Gz/oY3cM49wXXX/xyFkN5kluSwhn8UCh2jvnFlA+Xk8FRydHo7t62DcniU5gak8NHvUtgChvG4r4QZx6yHFoazV+kk2c3/zCOT7iyx1904v24nnhP++Qc2HEpvGPe9/6bnBXz2BQhWijf1+eGo7JhTONT4QzbPb9FhjrnrbwG7UxJonGJHL1Cm8mOuvbxG9Q3ow0GSOczmsC8N5c242ifWjqzSNHe/FTjEMcOX0lGyJxqgnRB+pbC/R1gSOPTbx0qMkwZ/niQO1RM/zFov4bh21tdz9fhuYx1g2P2iRONfH1KHOpFCYzSGJdRh3pMua5Wp5CpLngshZbjbRt/VIZA9HbyIZInECWl9//Tu6yu4QktiurrwhaMnLz7xCYrmIHMKrwJ9Xe4sEd3fp+arjSDLiKwq82+5DZ5XfDA6wPjcRZlflfAD5wN9wbJqvHpMCCFWuVdeAKbMobIge4B3cMFwSL9P8fYoovpOTCJB5cRVla80+AGS9WDIGTVfodMS/7fgus/Uu6gllGXWmUFKg9IGVEzOjB483v8Jt3GL2duPEfvUHgKB2/nLb+JQGBtDMdnd2fZS71ehsc76OXf+hdHsCFWJWRNkM4N7QtOlIfcBvzRu8YAF3wl3xqC1S227F/+zYGgpi2iWB4UcTN8qm+x5bk8oyh62PtF3R3YGJof/Cox26adRyn+svPZF7tr1JqYma7FRdgE5LM3Vvmc2xNelaRHvpyXDr2tVejlb/s3r4GLEryXnDOEyhmDRqu+0KGK6HkXRdKGytpoJmjlJIJdsLJQ5TY6QaMCy9PJ5sSqRNfPWVloA7V4khqzP0VWhVS0cQvoJcgrxdtahWB5G8tzW+P1IyIE7G/u6cWQmBzSnFB1JERJpwH5K4wmsjwaeqNwQolMJUHzRhv20KdwA+I4QdKu4mTyUQeA0VBaMKgkOjO0G4ikNNFt8B1+JR5NQY7yzDL3VP2dnHCH/E2dC1hFSemgDlT65gQsh2MyWB6wLcTcqOgB7Uh1DfeBj73/hUuGiLFp/KDe3tf2UAu4XD95QgsbeEjQPQQgHvGTZADEDbcVlFuMyVHp+h3FeS5JoFDQ62/xPUBkJCCibiE6kUCt8HW+WqT4iTXM94ijkdvwEXJFrAfrTFUiE7gIiM4mQhMhUEt461grhXhj9BfLsAiUvIuVNMgcLH8y6IgnzSEbDC2+ID4g26gAJgq+BzA+BzB7ENeyvygOp/mXQoc7hldIzU6scMXcaAkLh522bbRD+ZBSXQLLO0ObeCZii6Yni/09UCQoozWpW2ZHIlVc3ojs5i5AbdtlAUuUIkeKTGJmwVH+zNb1Yw3LXTGQqJsCAwy1A+ZZ/+NR1ctefQCsapkvC3stvl1iKjKUFFssS/+r/fHsISkPYwNoEpKb2v//nSRsDFCt7Wos5R5jot7k62ho0K2uMebazmIDTrIzK1zixFIZZ2jLlBgKwRukPvSfDosQ2BKAqbzgj/ZDBRCaGFGAW7OdEotoVM6jfAWxuZ3QogTZoIDwyY/A0pQolbdoOzpQhGXNN42ZacQDShE2X/LnKxRe1TMGvk+Ks0YTMtOoeMkmKN2puTlKFMFaKJsZK8pMsgyadN+SR69fgBTaioOmUtHqG2GGmzn8jNMbBQCHXtVqIBl/VR8WGjWq8pSoVJ4TX2DhWtfrTSqQiBuHS4Um0Kd8KV+hdmsVZbwAtsq3q61uabDRyKHKsyj7Tdl02P+a2lB+vOJT0ulSEWATcDinV5mOIid+tde8vMb1DEsYS/qMMUu75hUkGM3GrDMmHITQVRsq4xuxFIIKsi5H1hF3syhEQrYcFWkQiqrQ6n7BHFeD1WXUGcUEkwE2Ejhr+I+UPatUOnEz59/w1I35Szi/BDMxltYlUcvwNwgxaZ/fiSRsqqxUOC2nM2dA2p4aBNY3lwCwOyTUMVrfoS50kYC2blVBd0NRExLoYK5BincISPO5GYmazMaxGfxcToTdINxhfnIW2iKrhl4GDs501Hmy22bqo3WQtacF+XitDZIWkN6f28gUEyXLA9hdo1y5u+CU2kDF0k3LdghyLFRFLLpfWMaZPMW8VOM5J2VC3W3qtYZDZgVxDLpRRuYZS1tvPVNPHrxA+bsM1jAJjMC7/GiTLoa5gN7/WXwA4O+ZArOTNbSVVR02WnATgYtc9pv/xO+wY4uTDkevAtKUyCVTO+vTZvwZjCw4hbztL+U6LxMbu9/mehBbCA2zu7f/BNjJNfHI299I3/fftf95J77U+QQ5V9cXUiVIEacXy/BX3tFpuu+mIcuIHJ1JhmVOfH8Iha3eTcb9XUbqUAsUg4+QF/6g0z08hKdSO+zCXsHFo4EM+YxzIXKmONqNWY7DXPvp4woAGECU1YMPS5g5FG1abjiASw0m9kwVzbIQjRYbQK3ONCIHZsYrigPDib5BPQol/vGaoTUql2SUFmwG5G7PW6Pw1SsZ8pOFzw5U8Jet4WYGh5MfEwU+W/Q/yyG/yLGJNNt6nIDfjNvXanZs5ysQdxgNZo4gHKnOBdchCanW/4adlUuumli61yOk4szILESIJpCYLQgQShur8S65PWMggOySMBpoevbc34lE+5D9riyJOX2baD0f3HHMr6hyFccb01OBowQm3i00NHgQFOI+YgfmTAdv62zPyPmz54os3QwFXc02WCKT0f8kymP5gfNKU+kgF2pi6ESrEiMhhOlRUssMGWJRbbRjS5FwU7Bq5LvTxcFSJbPlb/Bn4t2N7NbMMd2YpIeP/UFR5NLgZjqHF8X3VqlEN/ffmcKv2j9MCoA42ljGvX+CVPNA1rowGTZRTGgl4WeUtfjPVvD4nMDeigCS7v0jRLywk89UxoErYhnskNIXUTms6YO2MfP55DEOPNWvHbRGJS4rLwpYS/Q8BxjfCAKMcy+sVL2EJLd5urocJdvY4qPT99CQwGnwOLubFmkfC/OR8Z9s7fvjMKin8XYSsSZRM7Mu/2ub+RRvLDQ+6YpLC66kiCJ8mGQ4mFazZIxQs7duv5wZRAzZAiZjjsigQxl5cUqZ4FQSMuvWwAEm2pTkN5k25E1HLR9hTi2ikL/bZU9yOjN4kvJMtyoVpTecclUzpy0r5BKRLiG0AovQSFdS1IjWcam45jB8BRWXEP6UIPZyWAIZI6D0H4OMi0N7EMmpbSuno5jjuRyFHL7MGZlaTUKq+fjBNe5oD6FiD5ktAVHYVCxeIQ8iGSg0KAPOZuG1vh81dq62iIiNaEANEO1itktaNMou7RYK0Q7qrS2uMLowqPv5MvEaBmNFLhBu/RdCw/roN0cUuPfEBgPD2GgzoHc0CH1IWJ5Q9+C8w+ZMgnDwW0mrELBVK75QW8Zzj/csD5+RPt7XDeQC0pXWJjOS/VoyxtZfOjjZ39GCti5KgVDqbrJRyrCUHnDCWg+TsPG2uhgOsIZxDfsYCx9D2k7AuEnGGtT8VJE3dKBF+PJn5KlVMbGISN6slfFgcN4qdIcyEagD6vh5x0gTOl9DebmL3S9giwORW1auQUV1kjeglHdxnKuMsabRa8CesO0iuyk5S3Y3BPD/OYucF37qkoi0a+NmXwZ4lJquSeV80BUPlOebNH8yrrC36J/5Zp5V3F69PxhJk0Q44fpLmBTOmppvNl0eGJKsxD5oeeA2Tw+k0BHT4/pMEaI7x+2qHinNTNmIi80Ja9KoJFajDVNoc0JPKtTBjanFpiTe9jP9VoMtp6mT4saq14tH2Y+FYnFyROm7ApJcqu89rWmDtREIed4OL1tccbQ4lCftDj6zVVdIYUsuZoodcgfOzxAx/Awx7MIU02JhenwpnVnKfwekXiqru0mw4Yu8/CWWUOTf3GFwckQZsuBtwAlEhjI1yYqiy8u7giu9NGqDfOAz2QYLfjrCLk3III44+m7z6sMAIk8zZQpW80/HyEWbGPUO7hyfqw3K6iJvRleoDQDUQBIYzH1epvWAj0uvW8210xDQISB2rU/SRBVq490dmFDg1YD3LqSAtWKSkOPs2/biPzPQk9Z1SfQywjPcMl5q1M/b8MOhYXN4TauigXzDcF5ix8pFLFnZthtbqPMaoLxb/BygjBTcEquZDsFU3FcJYuNm1gTfEIS2ybIuSd4dg1Z9L9sMXu5I9vlwfbEwcqrwdk1ZUwotY4ZbnxhZUN99ijw5fzW5w/BGVLMEjMctMa73TSDiA1K4mdI1bF0sIMyMwetQBjwhpeVyqgGjz2HUOIcMNSp2IrwgcGa3b04MLWR17m1P8ttOI9vKJaUXEfzOmAbGBJNFZT21HlLqXU0NGuI7srdI3SGZwrzYIUpVE8FsEpoDG1sqiZ8AIk9U+MvdAkBIfomNfQ24Tp63n/VdNv5nrH7HeqeqoHmmVEVtWLHLI3FsY7401QT4RsiY+s0Y3+anDEARBAaVjBs+ks1F5uFL4nRH+OUzrC6DabHEOBDVL/xJy1v2DclUr0jeSd9BrTHpirbRjxjdcQD7/VlUcwlZ83cVRKadr1D+W3KnkGial7WJgtXGJ5F08Zmbu48xBbJALTRLHSDEDGkVCXec49OUQLI2lcHTlZWcXJ0iKDnHtZhH5T34glZu4Zmsta1OuG+cFE1BjyXA8sOUMlu6n1pWcwlnE1VGqOOb5etwqIz2hLi0RVw8Abv6GzFpyncql6xMUB+RwsN1MLQPxFc+TCIU9uOXFZRXgyG6HH2fjzfqOaHbN8EDpBI3Oez639Z+UIW2+JblMNAEoiOj32o/pf4+fKBTR2QdQOsIuyEGV63ofozUG2E32BFH9XPe2qRmq/RDJqLbmcjw18PpAjaFvMO5ZGhodY3qxISYnJsYNEAU57xgW2ycAAbpg5AY3M8sWQ8tG2ZdMNhLqSi7gMCxb58WQC0PnFh0zO5NcXznyVgaiIiiOvPwEloQwS3D+63IPL0kUHx17rc1dTtxCeMCZADNElysNpUYmjA2+Dmm14YdPmNSN04CnJLxj5/WpqAmI0t673FddwL5oSaQ9f3ge6nYmZsCA9vgCDk6VvIkGhVeUCDS1NQZ6K8PVhCvlj8ijl4nMrxhm2SRKukJw36niD60Bc4lGqVKNLu7KJU25Y0bpCDKaVAb0SqBBW2OrC7BAZEuOnrKweURPWrEZaBOGIqfGoFYZ0Ad24KAliHdIf8aIWqLvxWghLAPShJ3roGbzWxlgGwQxVtZPZ+YWOxaHbJA+3bxAScgWgib4MqAt5GV+jBkcFbYPKmbqoNi3iJM7m9vuBQS8wuPEoQ0/L3UJQ3Se1LuxDDt0OqWGh9MNdtIjgD5mbuOdjOcsMxNvM0I78RJSlj9PAhHgSnfwrmhmuR7y2Ftoy1t2HhsFWLSWt5UNqVvZIYNu1k73QeJ3DOG7j5WGsZI/w5c+GxxtCl5xZ2r5AbxtiL9moZawQwFICykp9MRsvTrh6vcHsPDKzxt/6NszB8rdusfvCV1bs6R87VhOGG1ncVp3TXgiRyT/YX4vY15BxqedyD78LdsCwPV9DCo8Cg3XdquLsx3LuXh2sEMBS87yt9J8ORUrgH2xW/q50hlHteGH99CmE4HWyLo+vIZMi+ytMiYniQ3wbaXYByYzjkOV2VuO+Bw8hN5vyi9PTAag0VpcUvW6ayGW9a03O6ozs37Co94FfpcqkMWpehpu9Pr4pAc2vqlg4eHI1EixjBwzHQqqIrX2OX4a9OYv27YutirDkfTVwGPtdIdDqNiMvqGPo6gU0MR+8e4O4eVologe5ei1RVsdUwTLXmTjJ+fPU6he1J0xLN1SePNU9XtBc1MhN1kOPQdr3ApYbcNcBi9wq1EeQKiRjPuALCRKvWFf7zZepILyQS1U01HL2dHox2d4+r7sYQ6SLGaT3goEeuoFW0Ge+7aXjTXCWY/G6gvKyAYS546H4+y8LZ5s7NCMfqwFR5rJP8hz6eIXGCRTv33WZlDEQ/n+GWzuLR5566w3wlmGy84hrAm+czh65/fCSN/WGSS7elduNj9/+6kJARycNoDIYnkZtROXu4RRUsCw06ZXJ8BN9ERfocsXn0rrhgnBSWseUvm1aPYSculJq6zzI0esdin1UpVofmnI7++CwK6W4hl89zawa7Av84QsTLdRN6uLddzJBWtdIQXmwYvUM+63Qlsn1abOsR2Qvnn+3i9KU+2/wRVgyHYIG1BE5567RYVzY4Bil5LvZasXyFNxPtBZbnFlL6+0N5wRNOP2KJ1rGLZ5v5CoO9g1faCVcm34eJrWQPttN9IrDFu87Yd7NHqsphu2njNF5UiBOvlsOvQdQlubYbhaND5zNORTFRvCKc3ejFsa/tnjlBIFop28WrTec4nI4GYRjdEIaD9fhw7Gw+47aQxNpdf9/evJq+C8KOzx8DEeLaAyOlxPfjFO2Ui1NIfNepn0ln30yaoD56053DrEQlpCbE8JVxyzy8bWdGbaUKuFgPoxcF9GgE033cCJEpeZvDMwzsCoimmxjVkSXIc/3z8N9IcRHoj5Yzx21VWstU8Cb78T+6ehBeOF2efGF1zC5bOinbs9QS+uf2HoluOF3sZr4kNbmi7UJcsuscBrRh8K/CCwaj+f4zSZczJVRotKZ/k5d/9pPV5jgaBP854iB60WAyHf5+3593p1lywWy22m0+3ofTdWrRPfz7/wetQjS5hnUE3QAAAABJRU5ErkJggg==;" vertex="1" parent="8dSErVJY6MVv4yGIq6u0-26">
          <mxGeometry x="15" y="10" width="40" height="40" as="geometry" />
        </mxCell>
        <mxCell id="8dSErVJY6MVv4yGIq6u0-29" value="APIs" style="text;html=1;strokeColor=none;fillColor=none;align=center;verticalAlign=middle;whiteSpace=wrap;rounded=0;" vertex="1" parent="8dSErVJY6MVv4yGIq6u0-26">
          <mxGeometry x="55" y="20" width="40" height="20" as="geometry" />
        </mxCell>
        <mxCell id="8dSErVJY6MVv4yGIq6u0-32" value="" style="group" vertex="1" connectable="0" parent="1">
          <mxGeometry x="220" y="40" width="157" height="130" as="geometry" />
        </mxCell>
        <mxCell id="8dSErVJY6MVv4yGIq6u0-30" value="" style="shape=image;html=1;verticalAlign=top;verticalLabelPosition=bottom;labelBackgroundColor=#ffffff;imageAspect=0;aspect=fixed;image=https://cdn2.iconfinder.com/data/icons/whcompare-servers-web-hosting/50/sftp-128.png" vertex="1" parent="8dSErVJY6MVv4yGIq6u0-32">
          <mxGeometry width="110" height="110" as="geometry" />
        </mxCell>
        <mxCell id="8dSErVJY6MVv4yGIq6u0-31" value="" style="shape=image;html=1;verticalAlign=top;verticalLabelPosition=bottom;labelBackgroundColor=#ffffff;imageAspect=0;aspect=fixed;image=https://cdn3.iconfinder.com/data/icons/cad-database-presentation-spreadsheet-vector-fil-2/512/19-128.png" vertex="1" parent="8dSErVJY6MVv4yGIq6u0-32">
          <mxGeometry x="77" y="50" width="80" height="80" as="geometry" />
        </mxCell>
        <mxCell id="8dSErVJY6MVv4yGIq6u0-33" style="edgeStyle=orthogonalEdgeStyle;rounded=0;orthogonalLoop=1;jettySize=auto;html=1;entryX=0.5;entryY=0;entryDx=0;entryDy=0;" edge="1" parent="1" source="8dSErVJY6MVv4yGIq6u0-31" target="8dSErVJY6MVv4yGIq6u0-11">
          <mxGeometry relative="1" as="geometry" />
        </mxCell>
        <mxCell id="8dSErVJY6MVv4yGIq6u0-41" style="edgeStyle=orthogonalEdgeStyle;rounded=0;orthogonalLoop=1;jettySize=auto;html=1;" edge="1" parent="1" source="8dSErVJY6MVv4yGIq6u0-35" target="8dSErVJY6MVv4yGIq6u0-40">
          <mxGeometry relative="1" as="geometry" />
        </mxCell>
        <mxCell id="8dSErVJY6MVv4yGIq6u0-35" value="" style="outlineConnect=0;dashed=0;verticalLabelPosition=bottom;verticalAlign=top;align=center;html=1;shape=mxgraph.aws3.vpn_gateway;fillColor=#F58536;gradientColor=none;" vertex="1" parent="1">
          <mxGeometry x="405" y="514" width="69" height="72" as="geometry" />
        </mxCell>
        <mxCell id="8dSErVJY6MVv4yGIq6u0-38" style="edgeStyle=orthogonalEdgeStyle;rounded=0;orthogonalLoop=1;jettySize=auto;html=1;entryX=0.5;entryY=0;entryDx=0;entryDy=0;entryPerimeter=0;" edge="1" parent="1" source="8dSErVJY6MVv4yGIq6u0-27" target="8dSErVJY6MVv4yGIq6u0-35">
          <mxGeometry relative="1" as="geometry" />
        </mxCell>
        <mxCell id="8dSErVJY6MVv4yGIq6u0-39" value="" style="html=1;strokeWidth=1;shadow=0;dashed=0;shape=mxgraph.ios7.misc.vpn;fillColor=#007AFF;strokeColor=none;buttonText=;strokeColor2=#222222;fontColor=#222222;fontSize=8;verticalLabelPosition=bottom;verticalAlign=top;align=center;" vertex="1" parent="1">
          <mxGeometry x="460" y="500" width="40" height="40" as="geometry" />
        </mxCell>
        <mxCell id="8dSErVJY6MVv4yGIq6u0-40" value="" style="aspect=fixed;perimeter=ellipsePerimeter;html=1;align=center;shadow=0;dashed=0;spacingTop=3;image;image=img/lib/active_directory/database_server.svg;" vertex="1" parent="1">
          <mxGeometry x="381" y="630" width="117.4" height="143.17" as="geometry" />
        </mxCell>
        <mxCell id="8dSErVJY6MVv4yGIq6u0-42" value="Text" style="text;html=1;strokeColor=none;fillColor=none;align=center;verticalAlign=middle;whiteSpace=wrap;rounded=0;" vertex="1" parent="1">
          <mxGeometry x="440" y="280" width="40" height="20" as="geometry" />
        </mxCell>
        <mxCell id="8dSErVJY6MVv4yGIq6u0-43" value="Text" style="text;html=1;strokeColor=none;fillColor=none;align=center;verticalAlign=middle;whiteSpace=wrap;rounded=0;" vertex="1" parent="1">
          <mxGeometry x="440" y="280" width="40" height="20" as="geometry" />
        </mxCell>
        <mxCell id="8dSErVJY6MVv4yGIq6u0-44" value="&lt;font style=&quot;font-size: 14px&quot;&gt;&lt;b&gt;AMT&lt;/b&gt;&lt;/font&gt;" style="text;html=1;strokeColor=none;fillColor=none;align=center;verticalAlign=middle;whiteSpace=wrap;rounded=0;" vertex="1" parent="1">
          <mxGeometry x="400" y="80" width="55" height="30" as="geometry" />
        </mxCell>
        <mxCell id="8dSErVJY6MVv4yGIq6u0-45" value="&lt;font style=&quot;font-size: 14px&quot;&gt;&lt;b&gt;Microsoft Dynamics SL&lt;/b&gt;&lt;/font&gt;" style="text;html=1;strokeColor=none;fillColor=none;align=center;verticalAlign=middle;whiteSpace=wrap;rounded=0;" vertex="1" parent="1">
          <mxGeometry x="474" y="650" width="96" height="20" as="geometry" />
        </mxCell>
      </root>
    </mxGraphModel>
  </diagram>
</mxfile>
